<mxfile host="Electron" modified="2024-06-12T12:44:10.400Z" agent="Mozilla/5.0 (Macintosh; Intel Mac OS X 10_15_7) AppleWebKit/537.36 (KHTML, like Gecko) draw.io/23.0.2 Chrome/120.0.6099.109 Electron/28.1.0 Safari/537.36" etag="OpYB94ioVr4Z1k1unwSh" version="23.0.2" type="device">
  <diagram name="Page-1" id="D-Cl7CURe0xXjvmImHUs">
    <mxGraphModel dx="2052" dy="1486" grid="1" gridSize="10" guides="1" tooltips="1" connect="1" arrows="1" fold="1" page="1" pageScale="1" pageWidth="850" pageHeight="1100" math="0" shadow="0">
      <root>
        <mxCell id="0" />
        <mxCell id="1" parent="0" />
        <mxCell id="iJ0cbUTXvUk1-Xz2BghS-2" value="" style="html=1;shadow=0;dashed=0;align=center;verticalAlign=middle;shape=mxgraph.arrows2.bendArrow;dy=15;dx=38;notch=0;arrowHead=55;rounded=1;rotation=45;fillColor=#0050ef;fontColor=#ffffff;strokeColor=#001DBC;" vertex="1" parent="1">
          <mxGeometry x="409" y="329.5" width="100" height="100" as="geometry" />
        </mxCell>
        <mxCell id="iJ0cbUTXvUk1-Xz2BghS-3" value="" style="html=1;shadow=0;dashed=0;align=center;verticalAlign=middle;shape=mxgraph.arrows2.bendArrow;dy=15;dx=38;notch=0;arrowHead=55;rounded=1;rotation=-135;fillColor=#0050ef;fontColor=#ffffff;strokeColor=#001DBC;" vertex="1" parent="1">
          <mxGeometry x="399" y="479.5" width="100" height="100" as="geometry" />
        </mxCell>
        <mxCell id="iJ0cbUTXvUk1-Xz2BghS-4" value="" style="shape=mxgraph.cisco.people.androgenous_person;html=1;pointerEvents=1;dashed=0;fillColor=#0050ef;strokeColor=#001DBC;strokeWidth=2;verticalLabelPosition=bottom;verticalAlign=top;align=center;outlineConnect=0;fontColor=#ffffff;" vertex="1" parent="1">
          <mxGeometry x="340" y="409.5" width="69" height="82" as="geometry" />
        </mxCell>
        <mxCell id="iJ0cbUTXvUk1-Xz2BghS-5" value="" style="verticalLabelPosition=bottom;html=1;verticalAlign=top;align=center;strokeColor=#001DBC;fillColor=#0050ef;shape=mxgraph.azure.user;flipH=1;fontColor=#ffffff;" vertex="1" parent="1">
          <mxGeometry x="509" y="429.5" width="47.5" height="50" as="geometry" />
        </mxCell>
        <mxCell id="iJ0cbUTXvUk1-Xz2BghS-6" value="" style="shape=mxgraph.cisco.people.pc_man;html=1;pointerEvents=1;dashed=0;fillColor=#008a00;strokeColor=#005700;strokeWidth=2;verticalLabelPosition=bottom;verticalAlign=top;align=center;outlineConnect=0;fontColor=#ffffff;" vertex="1" parent="1">
          <mxGeometry x="810" y="380" width="104" height="149" as="geometry" />
        </mxCell>
        <mxCell id="iJ0cbUTXvUk1-Xz2BghS-7" value="" style="verticalLabelPosition=bottom;html=1;verticalAlign=top;align=center;strokeColor=#432D57;fillColor=#76608a;shape=mxgraph.azure.user;fontColor=#ffffff;" vertex="1" parent="1">
          <mxGeometry x="1210.75" y="504.5" width="47.5" height="50" as="geometry" />
        </mxCell>
        <mxCell id="iJ0cbUTXvUk1-Xz2BghS-8" value="" style="sketch=0;pointerEvents=1;shadow=0;dashed=0;html=1;strokeColor=#432D57;fillColor=#76608a;labelPosition=center;verticalLabelPosition=bottom;verticalAlign=top;outlineConnect=0;align=center;shape=mxgraph.office.users.meeting;fontColor=#ffffff;" vertex="1" parent="1">
          <mxGeometry x="1160" y="354.5" width="170" height="130" as="geometry" />
        </mxCell>
        <mxCell id="iJ0cbUTXvUk1-Xz2BghS-10" value="" style="whiteSpace=wrap;html=1;aspect=fixed;fillColor=#0050ef;fontColor=#ffffff;strokeColor=#001DBC;" vertex="1" parent="1">
          <mxGeometry x="40" y="620" width="80" height="80" as="geometry" />
        </mxCell>
        <mxCell id="iJ0cbUTXvUk1-Xz2BghS-11" value="" style="whiteSpace=wrap;html=1;aspect=fixed;fillColor=#008a00;fontColor=#ffffff;strokeColor=#005700;" vertex="1" parent="1">
          <mxGeometry x="130" y="620" width="80" height="80" as="geometry" />
        </mxCell>
        <mxCell id="iJ0cbUTXvUk1-Xz2BghS-12" value="" style="whiteSpace=wrap;html=1;aspect=fixed;fillColor=#008a00;fontColor=#ffffff;strokeColor=#005700;" vertex="1" parent="1">
          <mxGeometry x="220" y="620" width="80" height="80" as="geometry" />
        </mxCell>
        <mxCell id="iJ0cbUTXvUk1-Xz2BghS-13" value="" style="whiteSpace=wrap;html=1;aspect=fixed;fillColor=#0050ef;fontColor=#ffffff;strokeColor=#001DBC;" vertex="1" parent="1">
          <mxGeometry x="310" y="620" width="80" height="80" as="geometry" />
        </mxCell>
        <mxCell id="iJ0cbUTXvUk1-Xz2BghS-14" value="" style="whiteSpace=wrap;html=1;aspect=fixed;fillColor=#008a00;fontColor=#ffffff;strokeColor=#005700;" vertex="1" parent="1">
          <mxGeometry x="400" y="620" width="80" height="80" as="geometry" />
        </mxCell>
        <mxCell id="iJ0cbUTXvUk1-Xz2BghS-15" value="" style="whiteSpace=wrap;html=1;aspect=fixed;fillColor=#008a00;fontColor=#ffffff;strokeColor=#005700;" vertex="1" parent="1">
          <mxGeometry x="490" y="620" width="80" height="80" as="geometry" />
        </mxCell>
        <mxCell id="iJ0cbUTXvUk1-Xz2BghS-16" value="" style="whiteSpace=wrap;html=1;aspect=fixed;fillColor=#0050ef;fontColor=#ffffff;strokeColor=#001DBC;" vertex="1" parent="1">
          <mxGeometry x="580" y="620" width="80" height="80" as="geometry" />
        </mxCell>
        <mxCell id="iJ0cbUTXvUk1-Xz2BghS-18" value="" style="whiteSpace=wrap;html=1;aspect=fixed;fillColor=#76608a;fontColor=#ffffff;strokeColor=#432D57;" vertex="1" parent="1">
          <mxGeometry x="670.5" y="620" width="80" height="80" as="geometry" />
        </mxCell>
        <mxCell id="iJ0cbUTXvUk1-Xz2BghS-20" value="" style="whiteSpace=wrap;html=1;aspect=fixed;fillColor=#0050ef;fontColor=#ffffff;strokeColor=#001DBC;" vertex="1" parent="1">
          <mxGeometry x="490" y="720" width="80" height="80" as="geometry" />
        </mxCell>
        <mxCell id="iJ0cbUTXvUk1-Xz2BghS-21" value="" style="whiteSpace=wrap;html=1;aspect=fixed;fillColor=#008a00;fontColor=#ffffff;strokeColor=#005700;" vertex="1" parent="1">
          <mxGeometry x="580" y="720" width="80" height="80" as="geometry" />
        </mxCell>
        <mxCell id="iJ0cbUTXvUk1-Xz2BghS-22" value="" style="whiteSpace=wrap;html=1;aspect=fixed;fillColor=#008a00;fontColor=#ffffff;strokeColor=#005700;" vertex="1" parent="1">
          <mxGeometry x="670" y="720" width="80" height="80" as="geometry" />
        </mxCell>
        <mxCell id="iJ0cbUTXvUk1-Xz2BghS-23" value="" style="whiteSpace=wrap;html=1;aspect=fixed;fillColor=#0050ef;fontColor=#ffffff;strokeColor=#001DBC;" vertex="1" parent="1">
          <mxGeometry x="760" y="720" width="80" height="80" as="geometry" />
        </mxCell>
        <mxCell id="iJ0cbUTXvUk1-Xz2BghS-24" value="" style="whiteSpace=wrap;html=1;aspect=fixed;fillColor=#008a00;fontColor=#ffffff;strokeColor=#005700;" vertex="1" parent="1">
          <mxGeometry x="850" y="720" width="80" height="80" as="geometry" />
        </mxCell>
        <mxCell id="iJ0cbUTXvUk1-Xz2BghS-25" value="" style="whiteSpace=wrap;html=1;aspect=fixed;fillColor=#008a00;fontColor=#ffffff;strokeColor=#005700;" vertex="1" parent="1">
          <mxGeometry x="940" y="720" width="80" height="80" as="geometry" />
        </mxCell>
        <mxCell id="iJ0cbUTXvUk1-Xz2BghS-26" value="" style="whiteSpace=wrap;html=1;aspect=fixed;fillColor=#0050ef;fontColor=#ffffff;strokeColor=#001DBC;" vertex="1" parent="1">
          <mxGeometry x="1030" y="720" width="80" height="80" as="geometry" />
        </mxCell>
        <mxCell id="iJ0cbUTXvUk1-Xz2BghS-27" value="" style="whiteSpace=wrap;html=1;aspect=fixed;fillColor=#76608a;fontColor=#ffffff;strokeColor=#432D57;" vertex="1" parent="1">
          <mxGeometry x="1120.5" y="720" width="80" height="80" as="geometry" />
        </mxCell>
        <mxCell id="iJ0cbUTXvUk1-Xz2BghS-28" value="" style="whiteSpace=wrap;html=1;aspect=fixed;fillColor=#0050ef;fontColor=#ffffff;strokeColor=#001DBC;" vertex="1" parent="1">
          <mxGeometry x="940" y="820" width="80" height="80" as="geometry" />
        </mxCell>
        <mxCell id="iJ0cbUTXvUk1-Xz2BghS-29" value="" style="whiteSpace=wrap;html=1;aspect=fixed;fillColor=#008a00;fontColor=#ffffff;strokeColor=#005700;" vertex="1" parent="1">
          <mxGeometry x="1030" y="820" width="80" height="80" as="geometry" />
        </mxCell>
        <mxCell id="iJ0cbUTXvUk1-Xz2BghS-30" value="" style="whiteSpace=wrap;html=1;aspect=fixed;fillColor=#008a00;fontColor=#ffffff;strokeColor=#005700;" vertex="1" parent="1">
          <mxGeometry x="1120" y="820" width="80" height="80" as="geometry" />
        </mxCell>
        <mxCell id="iJ0cbUTXvUk1-Xz2BghS-31" value="" style="whiteSpace=wrap;html=1;aspect=fixed;fillColor=#0050ef;fontColor=#ffffff;strokeColor=#001DBC;" vertex="1" parent="1">
          <mxGeometry x="1210" y="820" width="80" height="80" as="geometry" />
        </mxCell>
        <mxCell id="iJ0cbUTXvUk1-Xz2BghS-32" value="" style="whiteSpace=wrap;html=1;aspect=fixed;fillColor=#008a00;fontColor=#ffffff;strokeColor=#005700;" vertex="1" parent="1">
          <mxGeometry x="1300" y="820" width="80" height="80" as="geometry" />
        </mxCell>
        <mxCell id="iJ0cbUTXvUk1-Xz2BghS-33" value="" style="whiteSpace=wrap;html=1;aspect=fixed;fillColor=#008a00;fontColor=#ffffff;strokeColor=#005700;" vertex="1" parent="1">
          <mxGeometry x="1390" y="820" width="80" height="80" as="geometry" />
        </mxCell>
        <mxCell id="iJ0cbUTXvUk1-Xz2BghS-34" value="" style="whiteSpace=wrap;html=1;aspect=fixed;fillColor=#0050ef;fontColor=#ffffff;strokeColor=#001DBC;" vertex="1" parent="1">
          <mxGeometry x="1480" y="820" width="80" height="80" as="geometry" />
        </mxCell>
        <mxCell id="iJ0cbUTXvUk1-Xz2BghS-35" value="" style="whiteSpace=wrap;html=1;aspect=fixed;fillColor=#76608a;fontColor=#ffffff;strokeColor=#432D57;" vertex="1" parent="1">
          <mxGeometry x="1570.5" y="820" width="80" height="80" as="geometry" />
        </mxCell>
      </root>
    </mxGraphModel>
  </diagram>
</mxfile>
